<?xml version="1.0" encoding="utf-8"?>
<!-- Generator: Adobe Illustrator 24.1.1, SVG Export Plug-In . SVG Version: 6.00 Build 0)  -->
<svg version="1.1" id="Layer_1" xmlns="http://www.w3.org/2000/svg" xmlns:xlink="http://www.w3.org/1999/xlink" x="0px" y="0px"
	 viewBox="0 0 64 64" style="enable-background:new 0 0 64 64;" xml:space="preserve">
<style type="text/css">
	.st0{fill:url(#SVGID_1_);}
	.st1{fill:#FFFFFF;}
</style>
<g>
	
		<linearGradient id="SVGID_1_" gradientUnits="userSpaceOnUse" x1="5.4419" y1="5.6402" x2="57.4824" y2="60.7418" gradientTransform="matrix(1 0 0 -1 0 65.748)">
		<stop  offset="0" style="stop-color:#19A59A"/>
		<stop  offset="1" style="stop-color:#0BB1D3"/>
	</linearGradient>
	<path class="st0" d="M51.5,64H12.3C5.5,64,0,58.5,0,51.7V12.3C0,5.5,5.5,0,12.3,0h39.3C58.5,0,64,5.5,64,12.3v39.3
		C64,58.5,58.5,64,51.5,64z"/>
	<g>
		<path class="st1" d="M26.4,17.4c-0.6,0-1.3,0.4-1.3,1.3v2.1v0.4V24c0,0.6,0.4,1.3,1.3,1.3c0.6,0,1.3-0.4,1.3-1.3v-2.8v-0.4v-2.1
			C27.9,17.9,27.2,17.4,26.4,17.4z"/>
		<path class="st1" d="M49.3,27.9h-3.8V15.9c0-2.1-1.7-3.8-3.8-3.8h-7.9h-3.4h-8.1c-2.1,0-3.8,1.7-3.8,3.8v11.9h-3.8
			c-0.6,0-1.3,0.4-1.3,1.3v13.6c0,4.9,4,8.9,8.9,8.9h7.9h3.4h7.9c4.9,0,8.9-4,8.9-8.9V29.1C50.4,28.5,50,27.9,49.3,27.9z M30,37.6
			c-1.3,0-1.9,0.4-2.1,0.9s-0.4,0.9-0.4,1.5L26.2,41c0-1.1,0-2.1,0.6-3.2s1.7-1.5,3.4-1.5h5.1v-1.9l1.9,1.7c0.4,0.4,0.4,1.3,0,1.7
			l-2.1,1.7v-1.9C35.1,37.6,30,37.6,30,37.6z M37.4,41.7c-0.6,1.1-1.7,1.5-3.4,1.5h-4.9v1.9L27,43.4c-0.4-0.4-0.4-1.3,0-1.7l2.1-1.7
			v1.9H34c1.3,0,1.9-0.4,2.1-0.9c0.2-0.4,0.4-0.9,0.4-1.5l1.5-0.9C38.1,39.8,37.8,40.8,37.4,41.7z M43,27.9h-9.1h-3.4H21V15.9
			c0-0.6,0.4-1.3,1.3-1.3h7.9h3.4h8.1c0.6,0,1.3,0.4,1.3,1.3C43,15.9,43,27.9,43,27.9z"/>
		<path class="st1" d="M37.6,17.4c-0.6,0-1.3,0.4-1.3,1.3v2.1v1.1V24c0,0.6,0.4,1.3,1.3,1.3c0.6,0,1.3-0.4,1.3-1.3v-2.1v-1.1v-2.1
			C38.9,18.1,38.3,17.4,37.6,17.4z"/>
	</g>
</g>
</svg>
