<?xml version="1.0" encoding="UTF-8" standalone="no"?>
<!-- Generator: Adobe Illustrator 24.1.1, SVG Export Plug-In . SVG Version: 6.00 Build 0)  -->

<svg
   version="1.1"
   id="Layer_1"
   x="0px"
   y="0px"
   viewBox="0 0 64 64"
   style="enable-background:new 0 0 64 64;"
   xml:space="preserve"
   sodipodi:docname="pardus-usb-formatter.svg"
   inkscape:version="1.3 (0e150ed6c4, 2023-07-21)"
   xmlns:inkscape="http://www.inkscape.org/namespaces/inkscape"
   xmlns:sodipodi="http://sodipodi.sourceforge.net/DTD/sodipodi-0.dtd"
   xmlns="http://www.w3.org/2000/svg"
   xmlns:svg="http://www.w3.org/2000/svg"><defs
   id="defs6" /><sodipodi:namedview
   id="namedview6"
   pagecolor="#ffffff"
   bordercolor="#000000"
   borderopacity="0.25"
   inkscape:showpageshadow="2"
   inkscape:pageopacity="0.0"
   inkscape:pagecheckerboard="0"
   inkscape:deskcolor="#d1d1d1"
   inkscape:zoom="3.5117188"
   inkscape:cx="43.426028"
   inkscape:cy="68.769743"
   inkscape:window-width="1920"
   inkscape:window-height="1137"
   inkscape:window-x="0"
   inkscape:window-y="0"
   inkscape:window-maximized="1"
   inkscape:current-layer="Layer_1" />&#10;<style
   type="text/css"
   id="style1">&#10;	.st0{fill:url(#SVGID_1_);}&#10;	.st1{fill:#FFFFFF;}&#10;</style>&#10;&#10;<g
   id="g4"><path
     class="st5"
     d="m 12.366934,7.478847 c 0,-2.5427014 2.118918,-4.520358 4.520359,-4.520358 h 30.936201 c 2.542701,0 4.520357,2.1189179 4.520357,4.520358 V 25.419019 H 12.225673 V 7.478847 Z"
     id="path4"
     style="fill:#f9f9f9;stroke-width:1" /><path
     class="st36"
     d="m 58.889047,27.13119 c 0,0 0,-0.408517 -0.272344,-0.408517 h -7.217128 v -2.859616 h -38.67291 v 2.723444 H 9.7308761 v 0 h -4.221339 c -0.272345,0 -0.544689,0.136172 -0.544689,0.544689 v 25.055696 c 0,4.49368 3.67665,8.17033 8.1703339,8.17033 h 37.855876 c 4.493684,0 8.170333,-3.67665 8.170333,-8.17033 V 27.13119 Z"
     id="path3"
     style="fill:#f9f9f9;fill-opacity:1;stroke-width:1" /><path
     class="st47"
     d="m 13.619046,63.538545 c -6.2151426,0 -11.240151,-5.025009 -11.240151,-11.240152 V 27.966771 c 0,-2.644742 2.1157926,-3.967113 3.9671118,-3.967113 H 9.9164079 V 8.1312087 c 0,-4.2315866 3.4381641,-7.66975068 7.6697511,-7.66975068 h 29.092158 c 4.231587,0 7.669751,3.43816408 7.669751,7.66975068 V 23.999658 h 3.570401 c 2.115794,0 3.702639,1.719082 3.702639,3.834876 v 24.331622 c 0,6.215143 -5.02501,11.240152 -11.240152,11.240152 h -36.76191 z"
     id="path461"
     style="opacity:0.3;fill:#ffffff;stroke-width:1" /><path
     class="st36"
     d="m 58.889047,27.433224 c 0,0 0,-0.408517 -0.272344,-0.408517 h -7.217128 v -2.859616 h -38.67291 v 2.723444 H 9.7308761 v 0 h -4.221339 c -0.272345,0 -0.544689,0.136172 -0.544689,0.544689 V 52.48892 c 0,4.49368 3.67665,8.17033 8.1703339,8.17033 h 37.855876 c 4.493684,0 8.170333,-3.67665 8.170333,-8.17033 V 27.433224 Z"
     id="path472"
     style="fill:#ddebf3;fill-opacity:1;stroke-width:1" /><path
     class="st5"
     d="m 12.366934,7.478847 c 0,-2.5427014 2.118918,-4.520358 4.520359,-4.520358 h 30.936201 c 2.542701,0 4.520357,2.1189179 4.520357,4.520358 V 25.419019 H 12.225673 V 7.478847 Z"
     id="path473"
     style="fill:#edefef;stroke-width:1" /><path
     class="st42"
     d="M 58.050707,26.115449 H 52.364512 V 8.1312064 c 0,-3.17369 -2.512504,-5.6861945 -5.686194,-5.6861945 h -11.7691 -5.02501 -12.165811 c -3.17369,0 -5.686195,2.5125045 -5.686195,5.6861945 V 25.983212 H 6.346008 c -0.9256596,0 -1.9835562,0.661186 -1.9835562,1.983556 v 24.331628 c 0,5.157246 4.0993494,9.256596 9.2565952,9.256596 h 15.86845 5.025009 15.86845 c 5.157246,0 9.256595,-4.09935 9.256595,-9.256596 V 27.966768 c 0,-0.925659 -0.528948,-1.851319 -1.586844,-1.851319 z"
     id="path471"
     style="fill:none;stroke:#2f3537;stroke-width:2.1;stroke-miterlimit:10;enable-background:new" /><g
     id="g475"
     transform="matrix(1.3223708,0,0,1.3223708,-634.87159,655.16724)"
     style="stroke-width:0.756218">&#10;	<path
   class="st0"
   d="M 513.4,-461.3 510,-465 c -0.3,-0.3 -0.8,-0.3 -1.1,0 l -3.4,3.7 c -0.3,0.3 -0.3,0.8 0.1,1.1 0.3,0.3 0.8,0.3 1.1,-0.1 l 2,-2.3 v 0.6 c 0,2.5 -2,4.5 -4.5,4.5 h -3.4 c -0.4,0 -0.8,0.3 -0.8,0.8 0,0.5 0.3,0.8 0.8,0.8 h 3.4 c 3.3,0 6,-2.7 6,-6 v -0.6 l 2,2.3 c 0.1,0.2 0.4,0.2 0.6,0.2 0.2,0 0.4,-0.1 0.5,-0.2 0.4,-0.3 0.4,-0.8 0.1,-1.1 z"
   id="path474"
   style="fill:#2f3536;stroke-width:0.756218" />&#10;	<path
   class="st0"
   d="m 502.9,-463.3 c -0.3,-0.3 -0.8,-0.3 -1.1,0.1 l -2,2.3 v -0.6 c 0,-2.5 2,-4.5 4.5,-4.5 h 3.4 c 0.4,0 0.8,-0.3 0.8,-0.8 0,-0.4 -0.3,-0.8 -0.8,-0.8 h -3.4 c -3.3,0 -6,2.7 -6,6 v 0.6 l -2,-2.3 c -0.3,-0.3 -0.8,-0.3 -1.1,-0.1 -0.3,0.3 -0.3,0.8 -0.1,1.1 l 3.4,3.7 c 0.1,0.2 0.3,0.2 0.6,0.2 0.2,0 0.4,-0.1 0.6,-0.2 l 3.4,-3.7 c 0.2,-0.2 0.1,-0.7 -0.2,-1 z"
   id="path475"
   style="fill:#2f3536;stroke-width:0.756218" />&#10;</g><g
     id="g476"
     transform="matrix(1.3223708,0,0,1.3223708,-634.87159,655.16724)"
     style="stroke-width:0.756218">&#10;	<path
   id="path3-11_00000089542871420935048970000011043769766157984939_"
   class="st9"
   d="m 498,-487.5 c -0.7,0 -1.5,0.5 -1.5,1.5 v 2.4 0.5 3.2 c 0,0.7 0.5,1.5 1.5,1.5 0.7,0 1.5,-0.5 1.5,-1.5 v -3.2 -0.5 -2.4 c 0.2,-1 -0.6,-1.5 -1.5,-1.5 z"
   style="fill:#2f3537;stroke-width:0.756218" />&#10;	<path
   id="path5-98_00000093140587639167713990000013390996325723265688_"
   class="st9"
   d="m 510.6,-487.5 c -0.7,0 -1.5,0.5 -1.5,1.5 v 2.4 1.2 2.4 c 0,0.7 0.5,1.5 1.5,1.5 0.7,0 1.5,-0.5 1.5,-1.5 v -2.4 -1.2 -2.4 c 0,-0.7 -0.7,-1.5 -1.5,-1.5 z"
   style="fill:#2f3537;stroke-width:0.756218" />&#10;</g><line
     class="st42"
     x1="12.693406"
     y1="25.983231"
     x2="51.835548"
     y2="26.115435"
     id="line476"
     style="fill:#ffffff;stroke:#2f3537;stroke-width:2.1;stroke-miterlimit:10;enable-background:new" /></g></svg>
